Results
version=1
nRows=9
nColumns=24
inDegrees=yes
endheader
time	pelvis_tilt	pelvis_list	pelvis_rotation	pelvis_tx	pelvis_ty	pelvis_tz	hip_flexion_r	hip_adduction_r	hip_rotation_r	knee_angle_r	ankle_angle_r	subtalar_angle_r	mtp_angle_r	hip_flexion_l	hip_adduction_l	hip_rotation_l	knee_angle_l	ankle_angle_l	subtalar_angle_l	mtp_angle_l	lumbar_extension	lumbar_bending	lumbar_rotation
      0.97483333	     -5.64320375	      1.32086866	     -1.22984202	     -0.16516190	      1.00210202	      0.32339863	     -7.91564480	      1.36885142	      0.17592903	    -11.19807022	      9.89558983	     -4.82761492	      3.52915587	     22.20460533	      2.88701789	     -0.60545583	      4.05487569	      1.61447594	     -1.23005161	      1.56602287	     -8.23171482	      3.32503050	      8.65862139
      0.97900000	     -5.62211855	      1.39162667	     -1.23563095	     -0.15935311	      1.00138796	      0.32305278	     -8.05403242	      1.23535991	      0.02835293	    -11.67995379	      9.97916360	     -4.58180578	      3.74963139	     22.14850174	      3.05895634	     -0.46912035	      4.13089930	      1.63237628	     -1.20370657	      1.57742306	     -8.19278398	      3.24953094	      8.60338182
      0.98316667	     -5.65942162	      1.44657455	     -1.24174483	     -0.15360397	      1.00060948	      0.32269311	     -8.09248807	      1.11774641	     -0.10065328	    -12.22911128	     10.02053135	     -4.30358139	      4.00934667	     22.17664302	      3.21110610	     -0.26863916	      4.09196792	      1.59804006	     -1.26691867	      1.59429751	     -8.12793356	      3.19828199	      8.54091703
      0.98733333	     -5.63469117	      1.52869659	     -1.23961197	     -0.14778901	      0.99993398	      0.32232421	     -8.18844356	      0.96658224	     -0.26985253	    -12.80132823	     10.05710573	     -4.00196039	      4.33886076	     22.12788022	      3.39444712	     -0.04261876	      4.00098558	      1.50460553	     -1.42839806	      1.62033150	     -8.10947315	      3.12377595	      8.46626650
      0.99150000	     -5.62782165	      1.60997409	     -1.25113128	     -0.14196740	      0.99925905	      0.32199472	     -8.25375680	      0.82023270	     -0.37171389	    -13.37679255	      9.91318666	     -3.91927139	      9.21937284	     22.09865411	      3.56756668	      0.22496203	      3.83981784	      1.34042320	     -1.73910447	      2.11457350	     -8.07152644	      3.03656965	      8.37433761
      0.99566667	     -5.59858929	      1.70242939	     -1.21381768	     -0.13612442	      0.99861684	      0.32158073	     -8.32094419	      0.65973980	     -0.57669645	    -14.01833143	      9.91416649	     -3.61187702	      9.28109198	     22.06365388	      3.76947187	      0.51728778	      3.57985148	      1.18616914	     -1.93624262	      2.11979471	     -8.05940232	      2.93271848	      8.30871674
      0.99983333	     -5.56286734	      1.81734105	     -1.18944932	     -0.13025298	      0.99800908	      0.32119371	     -8.37597232	      0.47383557	     -0.75013892	    -14.69552503	      9.87615878	     -3.34653773	      9.38546998	     22.00978785	      3.98742081	      0.85235274	      3.28644422	      0.93586046	     -2.31592913	      2.13348250	     -8.04468628	      2.80241480	      8.20651012
      1.00400000	     -5.52884565	      1.93275643	     -1.15731854	     -0.12437080	      0.99741176	      0.32078977	     -8.40973023	      0.28722736	     -0.92568962	    -15.40847797	      9.79829915	     -3.09390707	      9.54813308	     21.96158752	      4.20775212	      1.23231943	      2.93244963	      0.62766881	     -2.79925484	      2.15961598	     -8.03473856	      2.67540614	      8.10436713
      1.00816667	     -5.50566128	      2.05484940	     -1.11998122	     -0.11847509	      0.99681872	      0.32038214	     -8.40966769	      0.09340027	     -1.09997040	    -16.16265062	      9.68115484	     -2.86570144	      9.76422416	     21.92816820	      4.43495563	      1.63212991	      2.52652881	      0.26574044	     -3.34543501	      2.19543450	     -8.00396606	      2.53683787	      7.99362393
